<?xml version="1.0" encoding="iso-8859-1"?>
<!-- Generator: Adobe Illustrator 18.0.0, SVG Export Plug-In . SVG Version: 6.00 Build 0)  -->
<!DOCTYPE svg PUBLIC "-//W3C//DTD SVG 1.1//EN" "http://www.w3.org/Graphics/SVG/1.1/DTD/svg11.dtd">
<svg xmlns="http://www.w3.org/2000/svg" xmlns:xlink="http://www.w3.org/1999/xlink" version="1.1" id="Capa_1" x="0px" y="0px" viewBox="0 0 489.97 489.97" style="enable-background:new 0 0 489.97 489.97;" xml:space="preserve" width="512px" height="512px">
<path d="M487.305,151.774c-4.957-7.625-15.191-9.797-22.805-4.816l-49.996,32.535l-74.766-43.148  c-5.102-2.945-11.375-2.945-16.476,0l-75.281,43.449l-67.039-38.695V75.071c0-9.098-7.371-16.476-16.477-16.476  c-9.11,0-16.48,7.379-16.48,16.476v66.027l-66.234,38.227l-55.887-38.711c-7.468-5.172-17.75-3.305-22.934,4.168  c-5.18,7.484-3.313,17.742,4.168,22.934l57.371,39.738v87.809c0,5.887,3.136,11.328,8.238,14.273l75.277,43.457v61.906  c0,9.098,7.371,16.477,16.48,16.477c9.105,0,16.477-7.379,16.477-16.477v-61.906l67.039-38.703l67.043,38.703v61.906  c0,9.098,7.368,16.477,16.477,16.477c9.109,0,16.48-7.379,16.48-16.477v-61.906l75.277-43.457c5.102-2.945,8.238-8.387,8.238-14.273  v-87.512l50.981-33.18C490.106,169.606,492.263,159.403,487.305,151.774z M97.427,208.341l67.039-38.695l67.039,38.695v77.402  l-67.039,38.703l-67.039-38.703V208.341z M398.54,285.743l-67.039,38.703l-67.039-38.703v-77.402l67.039-38.695l67.039,38.695  V285.743z" fill="#91DC5A"/>
<g>
</g>
<g>
</g>
<g>
</g>
<g>
</g>
<g>
</g>
<g>
</g>
<g>
</g>
<g>
</g>
<g>
</g>
<g>
</g>
<g>
</g>
<g>
</g>
<g>
</g>
<g>
</g>
<g>
</g>
</svg>
